<svg width="17" height="17" viewBox="0 0 17 17" fill="none" xmlns="http://www.w3.org/2000/svg">
<path d="M1 6.18232C1 3.73935 1 2.51787 1.82376 1.75893C2.64752 1 3.97335 1 6.625 1H10.375C13.0267 1 14.3525 1 15.1762 1.75893C16 2.51787 16 3.73935 16 6.18232V12.0795C16 14.3971 16 15.5559 15.2085 15.9103C14.4169 16.2647 13.4279 15.5488 11.4499 14.1169L10.8168 13.6587C9.70461 12.8536 9.14849 12.451 8.5 12.451C7.85151 12.451 7.29539 12.8536 6.18317 13.6587L5.55012 14.1169C3.57207 15.5488 2.58305 16.2647 1.79153 15.9103C1 15.5559 1 14.3971 1 12.0795V6.18232Z" stroke="#E76A6E" stroke-width="2"/>
</svg>
