<svg width="26" height="27" viewBox="0 0 26 27" fill="none" xmlns="http://www.w3.org/2000/svg">
<path fill-rule="evenodd" clip-rule="evenodd" d="M19.9835 6.20273C19.6052 6.27452 19.0698 6.45707 18.2127 6.75377L10.8062 9.31754C9.62871 9.72514 8.79981 10.0128 8.21453 10.2652C7.92515 10.3899 7.72982 10.4918 7.59917 10.5767C7.48557 10.6506 7.45179 10.6919 7.44971 10.6943C7.22519 11.0304 7.2251 11.4687 7.44944 11.8048C7.45181 11.8076 7.48627 11.849 7.60022 11.9227C7.73285 12.0086 7.93106 12.1116 8.22426 12.2377C8.81693 12.4927 9.65671 12.7841 10.848 13.1965C10.8735 13.2053 10.8987 13.214 10.9238 13.2227C11.2879 13.3484 11.6075 13.4587 11.89 13.6324C12.31 13.8908 12.6598 14.2486 12.9086 14.6744C13.0759 14.9607 13.1782 15.2803 13.2945 15.6438C13.3024 15.6686 13.3105 15.6937 13.3186 15.7189C13.6841 16.8578 13.9434 17.6638 14.1691 18.2357C14.2808 18.519 14.3723 18.7132 14.449 18.8451C14.5127 18.9547 14.5492 18.9913 14.5521 18.9944C14.9136 19.2764 15.4206 19.2764 15.7821 18.9944C15.785 18.9913 15.8215 18.9547 15.8852 18.8451C15.9619 18.7132 16.0534 18.519 16.1652 18.2357C16.3908 17.6638 16.6501 16.8578 17.0157 15.7189L19.4919 8.00439C19.7691 7.14076 19.9395 6.60136 20.0027 6.22157C20.004 6.21366 20.0053 6.20596 20.0065 6.19848C19.999 6.19982 19.9913 6.20124 19.9835 6.20273ZM20.2423 6.17663C20.2421 6.17682 20.2388 6.17659 20.233 6.17538C20.2396 6.17585 20.2425 6.17645 20.2423 6.17663ZM20.0244 5.97145C20.0231 5.96571 20.0228 5.96242 20.023 5.96221C20.0231 5.962 20.0238 5.96487 20.0244 5.97145ZM19.6105 4.23781C20.1605 4.13344 20.9148 4.09554 21.5016 4.66913C22.0883 5.24273 22.0675 5.99775 21.9756 6.54989C21.8853 7.09251 21.6664 7.77435 21.4193 8.54374C21.4116 8.56763 21.4039 8.59159 21.3962 8.61564L18.92 16.3302L18.908 16.3675C18.5571 17.4607 18.2782 18.3296 18.0256 18.9698C17.7893 19.5687 17.4991 20.1881 17.023 20.5629C15.9342 21.4202 14.4 21.4202 13.3112 20.5629C12.8352 20.1881 12.5449 19.5687 12.3086 18.9698C12.056 18.3296 11.7772 17.4608 11.4263 16.3676L11.4143 16.3302C11.26 15.8495 11.224 15.7557 11.1817 15.6833C11.0988 15.5414 10.9822 15.4221 10.8422 15.336C10.771 15.2922 10.6762 15.2535 10.1938 15.0865L10.1524 15.0721C9.01179 14.6773 8.10202 14.3624 7.43376 14.0749C6.80398 13.8039 6.15737 13.4686 5.79026 12.9216C5.11158 11.9104 5.11158 10.5892 5.79026 9.57797C6.1565 9.03227 6.79743 8.69821 7.42259 8.42863C8.08424 8.14331 8.98391 7.8319 10.1104 7.44198L10.152 7.42757L17.5584 4.8638L17.6298 4.83909C18.3934 4.57469 19.0701 4.34037 19.6105 4.23781Z" fill="#E76A6E"/>
</svg>
